<?xml version="1.0" encoding="UTF-8"?>
<svg version="1.1" viewBox="0 0 2048 1380" width="1280" height="1280" xmlns="http://www.w3.org/2000/svg">
<path transform="translate(0)" d="m0 0h2048v1380h-2048z" fill="#2C2C2C"/>
<path transform="translate(1269,232)" d="m0 0h38l30 6 20 8 22 12 17 13 17 17 12 17 12 23 5 14 5 21 3 32v9l-5 19-1 2-12-1-42-6-9-1h-12l-6 5-3 8v8l4 8 9 6 29 6 23 5 3 3-1 6-11 20-11 12-7 8-9 8-22 14-17 8-15 5-17 4-18 2h-18l-19-3-31-8-22-11-13-9-11-9-10-9-10-11-12-17-11-23-5-15-5-19-1-6v-41l2-14 9-32 10-19 11-15 12-14 10-10 12-9 23-13 20-8z" fill="#FEFEFE"/>
<path transform="translate(1374,576)" d="m0 0h5v3l4 1v13l-8 44-13 68-18 90-2 1v-32l-5 9-2 5-4 23-2 6-4-2-2-2 1-13v-11l-2-8h-1l-4 27-29 149-12 57-3 8-2 2h-9l-64-12-66-13-17-3-4-4 2-4 13-11 118-118 11-9 3-5 12-59 14-72 18-96 4-13 2-3 25-5 27-6z" fill="#FEFEFE"/>
<path transform="translate(1054,186)" d="m0 0 7 3 3 2v2l3 1v2l18 1 12-5 3-4 4 1 5 5 24 46 6 9-1 7-11 12-7 7-10 16-3 5-10-1-63-12-24-4-10-1h-18l-12 5-3 1-8 16-5 22-24 129-4 18-4 4-19 7-70 23-7 2h-10l2-18 16-82 17-89 5-17 5-5 15-10 60-32 44-24 29-16 21-12 22-13z" fill="#FEFEFE"/>
<path transform="translate(1173,1149)" d="m0 0 12 1 11 6 8 7 10 15 8 16 9 24 5 17 7 37 3 24 1 4 3-31 3-23 10-35 14-29 14-18 9-8 10-5 11-2 13 1 10 4 7 8 5 12 1 4 1 56v83l-1 21-6 12-4 5-10 7-7 2h-18l-2-5-1-23v-82l3-21 4-18-6 22-12 54-7 28-10 25-15 16-12 4h-14l-14-7-10-11-5-10-6-16-6-21-14-64-2-6 3 18v70l-4 23-4 7-7 8-13 6-14 3-4-1-3-8v-113l1-57 3-12 5-10 6-7 10-5z" fill="#FDFDFD"/>
<path transform="translate(1848,1149)" d="m0 0 14 1 12 6 10 10 9 15 8 16 10 30 8 33 5 33 6-44 8-28 7-20 8-16 8-12 9-10 8-7 13-6 13-1 11 2 8 5 6 7 4 9 1 4v162l-8 16-5 4-9 5-5 1h-19l-1-15-1-31v-57l5-35 2-10-5 18-16 73-10 30-9 13-8 8-7 4-5 2h-16l-10-5-10-9-9-16-9-25-7-30-8-37-3-10v-4h-2l3 10 2 15v63l-3 19-6 12-9 9-11 6-2 1h-17l-2-5v-93l1-58 1-27 5-12 6-9 9-6 6-3z" fill="#FDFDFD"/>
<path transform="translate(315,1150)" d="m0 0h80l13 2 15 8 9 10 7 14 1 4v136l-3 12-8 13-10 9-9 5-5 1h-93l-13-5-13-11-4-5-5-11-1-3-1-31-1-56v-40l2-15 3-9 9-13 8-8 10-5z" fill="#FEFEFE"/>
<path transform="translate(918,729)" d="m0 0 5 1 31 11 28 10 47 16 43 15 3 3-2 4-27 12-23 12-16 8-23 11-70 35-22 12-36 17-27 14-22 12-5 2-14-1-27-4-13-7-1-2v-11l15-74 6-29 3-6 4-3 26-9 45-19 56-22z" fill="#FEFEFE"/>
<path transform="translate(1233,750)" d="m0 0h4l-1 14-9 45-3 7-6 8-24 24-8 7-7 7-7 8-10 9-96 96-21-2-31-6-91-18-57-10-2-1 1-5 19-10 29-15 46-23 23-11 102-51 26-12 20-10 19-10 28-14 23-11 30-15z" fill="#FEFEFE"/>
<path transform="translate(1481,1150)" d="m0 0h16l9 5 9 9 8 14 10 21 14 38 21 68-1-5-5-18-3-19v-64l3-26 6-11 8-7 13-4 4-1h16l1 1v58l-3 112-4 19-6 9-5 5-7 6-6 3-7 1h-17l-13-7-10-9-12-21-9-27-17-66-12-30 9 28 3 19v65l-5 23-8 14-11 7-15 4h-8l-2-7-1-35 1-109 1-25 5-15 7-11 7-6 12-5z" fill="#FEFEFE"/>
<path transform="translate(97,1149)" d="m0 0h86l14 1v42l-1 1h-92l-16-5-8-6-6-5-5-7v150h28l24 1 15 5 7 6 7 10-2-65-16-1-10-2-13-8-11-14v-15l4-1h78l12 1 1 1v84l-4 18-8 13-8 7-8 4h-105l-14-5-12-9-7-8-6-10-3-9v-137l5-12 9-11 8-7 12-6z" fill="#FEFEFE"/>
<path transform="translate(661,1150)" d="m0 0 17 1 15 3 14 7 10 9 9 17 14 43 35 120 1 4v9l-1 1h-31l-11-4-7-6-8-14v-7h-23l-12-3-9-7-7-7-4-7-3-9-2 1-7 24-15 36-2 3-14-1-12-9-7-8-4-9v-18l12-36 16-41 21-57 12-30z" fill="#FEFEFE"/>
<path transform="translate(1630,1150)" d="m0 0 10 1 11 4 11 7 9 10 6 12 1 9 1 21v108l6-1h22l19 5 11 7 5 6 1 6h2l1-159 1-35 9-1 16 6 11 9 8 9 4 7 1 7 1 37v135l-4 4h-128l-9-3-13-11-6-7-8-14-1-17v-100l1-61z" fill="#FEFEFE"/>
<path transform="translate(952,1150)" d="m0 0 11 1 12 4 10 7 9 10 6 10 1 25v115l7-1h21l19 5 11 7 7 8 2 2v-97l1-63 1-31 3-2 9 1 11 4 11 8 8 9 6 11 1 15v166h-132l-17-9-8-7-9-16-2-10-1-18 1-135z" fill="#FEFEFE"/>
<path transform="translate(868,533)" d="m0 0 10 1 14 7 25 15 23 12 19 10 22 13 26 15 35 20v4l-18 12-19 12-17 11-11 3-48-16-57-18-30-9-36-12-1-1v-10l4-26 4-19 4-7 16-6 33-10z" fill="#FEFEFE"/>
<path transform="translate(1100,472)" d="m0 0 8 1 4 5 13 23 11 14 9 11 9 10 10 10 1 5-5 5-19 12-23 15-19 13-10 8-12-2-28-16-24-13-28-15-27-16-29-17-10-6v-6l46-11 42-10 78-19z" fill="#FEFEFE"/>
<path transform="translate(1e3 316)" d="m0 0 15 1 32 5 43 8 4 2-1 19-3 14-1 10-1 29 3 29-10 5-40 10-57 13-13 1-1-2 6-36 13-67 7-34 3-6z" fill="#FEFEFE"/>
<path transform="translate(797,1150)" d="m0 0h7l10 3 14 7 7 7 7 11 4 11 1 147h2v-2l8-6 11-4 6-2 7-1h18l31 1 3 6v35l-2 1h-96l-12-4-13-10-8-10-5-11-1-5z" fill="#FEFEFE"/>
<path transform="translate(1080,649)" d="m0 0 9 3 20 11 17 10 28 17 32 17 18 10 1 3-4 4-28 14-23 11-20 10-9-1-34-10-21-7-36-13-43-14-1-3 5-5 18-11 24-15 11-7 30-20z" fill="#FEFEFE"/>
<path transform="translate(321,1169)" d="m0 0 5 5 6 10 4 3 13 3 40 2 5 1 2 133v23l-18-18-15-6-15-2-27-1z" fill="#2C2C2C"/>
<path transform="translate(1202,572)" d="m0 0 10 2 31 11 22 7 1 1v11l-13 71-4 19-2 3-6-2-28-15-27-16-23-13-27-14-10-6-4-3v-2l16-12 17-11 14-9 22-14z" fill="#FEFEFE"/>
<path transform="translate(1413,1149)" d="m0 0h8l4 3v212h-48l-1-1v-27l10-18 8-8 8-7-26-1-2-5v-87l1-23 4-10 6-9 10-10 15-8z" fill="#FEFEFE"/>
<path transform="translate(799,276)" d="m0 0 7 2 5 8 15 29v8l-26 15-23 13-25 14-19 11-23 13-18 10-7 4-4-2-12-19-12-21 2-8 13-8 25-14 18-10 29-16 26-14 23-12z" fill="#FEFEFE"/>
<path transform="translate(847,77)" d="m0 0h21l77 14 94 18 2 1v7l-3 3-2 19-12-1-57-10-90-17-13-2-2 12-9 45-7 36-5 12-1 2-6 3-6-1-6-3-4-5v-19l10-49 5-28 6-25 7-11z" fill="#FEFEFE"/>
<path transform="translate(1031,16)" d="m0 0 12 2 35 12 25 12 16 11 13 10 11 10 8 7 4 6 10-3 3-2 12 16 9 16v32l6 15 12 13 6 8 7 15v7l-5 4-21 11-8 1-5-6v-2h-2l6 9-3 3-4 1-9-14-7-12v-11l1-17-4-10-12-19-17-28-16-24-13-15-9-10-11-10-13-10-24-14-11-7-3-5z" fill="#FEFEFE"/>
<path transform="translate(799,652)" d="m0 0 16 3 73 24 26 8 1 4-16 8-49 19-27 11-30 12-11 4h-3v-9l5-28 9-45 5-10z" fill="#FEFEFE"/>
<path transform="translate(893,153)" d="m0 0 16 1 83 16 11 4-5 5-23 13-24 13-23 13-29 16-18 11-5 1-1-4 3-24 9-48 5-15z" fill="#FEFEFE"/>
<path transform="translate(793,360)" d="m0 0h11l7 4 1 2v12l-10 56-16 80-3 5-9 4-7 2h-8v-23l23-121 3-14z" fill="#FEFEFE"/>
<path transform="translate(1361,172)" d="m0 0 13 1 57 11 18 5 7 8 1 14-2 5-3 3h-8l-16-3h-4l-3 20-4 1-10-6-11-8-21-12-19-10-3-5 2-10 4-12z" fill="#FEFEFE"/>
<path transform="translate(737,636)" d="m0 0 13 1 9 3v13l-3 22-16 80-5 9-8 4-4 1h-12v-14l12-65 9-45 4-8z" fill="#FEFEFE"/>
<path transform="translate(1233,149)" d="m0 0h15l60 12 10 3 4 2-1 9-5 17-1 1h-57l-11-15-10-18-4-9z" fill="#FEFEFE"/>
<path transform="translate(719,811)" d="m0 0 9 1-1 11-8 45-5 24-5 12-1 2h-16l-5-6v-19l9-47 4-13 5-4z" fill="#FEFEFE"/>
<path transform="translate(1541,189)" d="m0 0 10 2 9 6 6 7 2 5v10l-5 10-8 8-2 1-14 1-13-7-7-11v-13l5-9 7-7 4-2z" fill="#FEFEFE"/>
<path transform="translate(676,1205)" d="m0 0 3 2 13 44 7 26 2 9v6h-38l2-9 10-35z" fill="#2C2C2C"/>
<path transform="translate(1092,119)" d="m0 0h6l12 19 6 12-1 5-20 12-8 2-7-9-11-17-2-3 1-5 8-7 13-8z" fill="#FEFEFE"/>
<path transform="translate(222,1330)" d="m0 0h34l1 1v30l-4 3h-31l-3-4v-24l2-5z" fill="#FEFEFE"/>
<path transform="translate(464,1330)" d="m0 0h35v31l-5 3h-31l-2-4v-19l2-10z" fill="#FEFEFE"/>
<path transform="translate(1505,501)" d="m0 0h10l7 3 6 7 1 3v9l-6 9-6 3h-12l-8-8-3-7 1-9 8-9z" fill="#FEFEFE"/>
<path transform="translate(761,564)" d="m0 0h12l1 1v14l-4 18-2 3h-9l-10-5-4-7v-11l3-5 7-6z" fill="#FEFEFE"/>
<path transform="translate(768,92)" d="m0 0h10l6 3 4 5 1 3v9l-7 8-1 1h-14l-7-8-1-3v-10l5-6z" fill="#FEFEFE"/>
<path transform="translate(1453,559)" d="m0 0h12l5 4 2 5 1 10-6 7-4 2h-13l-4-4-1-2v-15l5-5z" fill="#FEFEFE"/>
<path transform="translate(1419,669)" d="m0 0h8l8 2 5 6v10l-6 8h-15l-5-6-1-3v-9l3-6z" fill="#FEFEFE"/>
</svg>
